<svg xmlns="http://www.w3.org/2000/svg" viewBox="0 0 30 30" x="0px" y="0px">
  <g>
    <path fill="white" d="M30,31H2a1,1,0,0,1-1-1V23a1,1,0,0,1,1-1H4V9A1,1,0,0,1,5,8H9a1,1,0,0,1,1,1V22h1V16a1,1,0,0,1,1-1H30a1,1,0,0,1,1,1V30A1,1,0,0,1,30,31ZM13,29H29V17H13ZM3,29h8V24H3Zm3-7H8V10H6Zm19,2a1,1,0,0,1-1-1V20a1,1,0,0,1,2,0v3A1,1,0,0,1,25,24Zm-4,0a1,1,0,0,1-1-1V20a1,1,0,0,1,2,0v3A1,1,0,0,1,21,24Zm-4,0a1,1,0,0,1-1-1V20a1,1,0,0,1,2,0v3A1,1,0,0,1,17,24ZM14,7a3,3,0,0,1-3-3,1,1,0,0,0-1-1H9A1,1,0,0,0,8,4V6A1,1,0,0,1,6,6V4A3,3,0,0,1,9,1h1a3,3,0,0,1,3,3,1,1,0,0,0,2,0,3,3,0,0,1,3-3H29a1,1,0,0,1,0,2H18a1,1,0,0,0-1,1A3,3,0,0,1,14,7Z" />
  </g>
</svg>