<svg xmlns="http://www.w3.org/2000/svg" viewBox="0 0 50 50" x="0px" y="0px">
  <g data-name="icons">
    <path fill="white" d="M14,19H12c-4,0-4,3.763-4,5v5c0,1.237,0,5,4,5h2a1.959,1.959,0,0,0,2-2V21A1.959,1.959,0,0,0,14,19Zm0,13H12c-.938,0-2,0-2-3V24c0-3,1.062-3,2-3h2Z" />
    <path fill="white" d="M35,18h2A12.573,12.573,0,0,0,24,5,12.573,12.573,0,0,0,11,18h2c0-6.477,4.523-11,11-11S35,11.523,35,18Z" />
    <path fill="white" d="M36,19H34a1.959,1.959,0,0,0-2,2V32a1.959,1.959,0,0,0,2,2h.948c-.268,2.522-1.8,4.975-8.141,5.882A2.844,2.844,0,0,0,24,38a3,3,0,0,0,0,6,2.834,2.834,0,0,0,2.872-2.113c8.222-1.126,9.866-4.866,10.092-7.981C39.99,33.342,40,30.127,40,29V24C40,22.763,40,19,36,19ZM24,42a1,1,0,0,1,0-2,1,1,0,0,1,0,2ZM38,29c0,3-1.062,3-2,3l-2-.028V21h2c.938,0,2,0,2,3Z" />
  </g>
</svg>