<svg xmlns="http://www.w3.org/2000/svg" viewBox="0 0 60 60" fill="none" x="0px" y="0px">
  <path fill-rule="evenodd" clip-rule="evenodd" d="M25.4643 10.5C25.4643 8.567 27.0313 7 28.9643 7H35.0357C36.9687 7 38.5357 8.567 38.5357 10.5V13.1304C39.2854 13.3901 40.0147 13.6931 40.7207 14.0364L42.5813 12.1758L43.6212 13.2156L42.5813 12.1758C43.9482 10.8089 46.1642 10.8089 47.5311 12.1758L46.4704 13.2364L47.5311 12.1758L51.8242 16.4689C53.1911 17.8358 53.1911 20.0518 51.8242 21.4187L49.9636 23.2793C50.3069 23.9853 50.6099 24.7146 50.8695 25.4643H53.5C55.433 25.4643 57 27.0313 57 28.9643V35.0357C57 36.9687 55.433 38.5357 53.5 38.5357H50.8695C50.6099 39.2854 50.3069 40.0147 49.9636 40.7207L51.8242 42.5813C53.191 43.9481 53.191 46.1642 51.8242 47.531L47.531 51.8242C46.1642 53.191 43.9481 53.191 42.5813 51.8242L40.7207 49.9636C40.0147 50.3069 39.2854 50.6099 38.5357 50.8695V53.5C38.5357 55.433 36.9687 57 35.0357 57H28.9643C27.0313 57 25.4643 55.433 25.4643 53.5V50.8694C24.7146 50.6098 23.9853 50.3069 23.2794 49.9636L21.4186 51.8243C20.0518 53.1911 17.8357 53.1911 16.4689 51.8243L12.1757 47.5311L13.2156 46.4913L12.1757 47.5311C10.8089 46.1643 10.8089 43.9482 12.1757 42.5814L14.0364 40.7207C13.6931 40.0147 13.3902 39.2854 13.1305 38.5357H10.5C8.567 38.5357 7 36.9687 7 35.0357V28.9643C7 27.0313 8.567 25.4643 10.5 25.4643H13.1305C13.3901 24.7146 13.6931 23.9853 14.0364 23.2793L12.1757 21.4186C10.8089 20.0518 10.8089 17.8357 12.1757 16.4688L16.4689 12.1757C17.8357 10.8089 20.0518 10.8089 21.4186 12.1757L23.2793 14.0364C23.9853 13.6931 24.7146 13.3901 25.4643 13.1305V10.5ZM28.9643 10C28.6881 10 28.4643 10.2239 28.4643 10.5V14.2307C28.4643 14.9019 28.0184 15.4914 27.3725 15.6741C26.0903 16.0368 24.8695 16.5466 23.7295 17.1845C23.1436 17.5123 22.4112 17.4109 21.9364 16.9361L19.2973 14.297C19.102 14.1018 18.7854 14.1018 18.5902 14.297L14.297 18.5902C14.1018 18.7854 14.1018 19.102 14.297 19.2973L16.9362 21.9364C17.4109 22.4112 17.5124 23.1436 17.1845 23.7295C16.5466 24.8695 16.0368 26.0903 15.6741 27.3726C15.4915 28.0184 14.902 28.4643 14.2308 28.4643H10.5C10.2239 28.4643 10 28.6882 10 28.9643V35.0357C10 35.3119 10.2239 35.5357 10.5 35.5357H14.2308C14.902 35.5357 15.4915 35.9816 15.6742 36.6275C16.0368 37.9097 16.5467 39.1305 17.1845 40.2705C17.5124 40.8564 17.4109 41.5888 16.9362 42.0636L14.2971 44.7027C14.1018 44.898 14.1018 45.2145 14.2971 45.4098L18.5902 49.7029C18.7855 49.8982 19.102 49.8982 19.2973 49.703L20.358 50.7636L19.2973 49.7029L21.9364 47.0638C22.4112 46.5891 23.1436 46.4876 23.7295 46.8155C24.8695 47.4533 26.0903 47.9632 27.3725 48.3258C28.0184 48.5085 28.4643 49.098 28.4643 49.7692V53.5C28.4643 53.7761 28.6881 54 28.9643 54H35.0357C35.3118 54 35.5357 53.7761 35.5357 53.5V49.7692C35.5357 49.098 35.9816 48.5085 36.6275 48.3259C37.9097 47.9632 39.1305 47.4534 40.2705 46.8155C40.8564 46.4876 41.5888 46.5891 42.0636 47.0638L44.7026 49.7029C44.8979 49.8981 45.2145 49.8981 45.4097 49.7029L49.7029 45.4097C49.8981 45.2145 49.8981 44.8979 49.7029 44.7026L47.0639 42.0636C46.5891 41.5888 46.4876 40.8564 46.8155 40.2705C47.4534 39.1305 47.9632 37.9097 48.3259 36.6275C48.5086 35.9816 49.0981 35.5357 49.7693 35.5357H53.5C53.7761 35.5357 54 35.3119 54 35.0357V28.9643C54 28.6882 53.7761 28.4643 53.5 28.4643H49.7693C49.0981 28.4643 48.5086 28.0184 48.3259 27.3726C47.9632 26.0903 47.4534 24.8695 46.8155 23.7295C46.4877 23.1436 46.5891 22.4111 47.0639 21.9364L49.7029 19.2974C49.8982 19.1021 49.8982 18.7855 49.7029 18.5903L45.4098 14.2971C45.2145 14.1018 44.8979 14.1018 44.7026 14.2971L42.0636 16.9361C41.5889 17.4109 40.8564 17.5123 40.2705 17.1845C39.1305 16.5466 37.9097 16.0367 36.6275 15.6741C35.9816 15.4914 35.5357 14.9019 35.5357 14.2307V10.5C35.5357 10.2239 35.3118 10 35.0357 10H28.9643ZM32 22.6539C26.8383 22.6539 22.6539 26.8383 22.6539 32C22.6539 37.1618 26.8383 41.3462 32 41.3462C37.1618 41.3462 41.3462 37.1618 41.3462 32C41.3462 31.1716 42.0178 30.5 42.8462 30.5C43.6746 30.5 44.3462 31.1716 44.3462 32C44.3462 38.8186 38.8186 44.3462 32 44.3462C25.1814 44.3462 19.6539 38.8186 19.6539 32C19.6539 25.1814 25.1814 19.6539 32 19.6539C32.8285 19.6539 33.5 20.3254 33.5 21.1539C33.5 21.9823 32.8285 22.6539 32 22.6539ZM41.6472 26.7337C42.233 26.1479 42.233 25.1982 41.6472 24.6124C41.0614 24.0266 40.1116 24.0266 39.5258 24.6124L32 32.1383L29.4452 29.5836C28.8595 28.9978 27.9097 28.9978 27.3239 29.5836C26.7381 30.1693 26.7381 31.1191 27.3239 31.7049L30.9393 35.3203C31.5251 35.906 32.4748 35.906 33.0606 35.3203L41.6472 26.7337Z" fill="white" />
</svg>