<svg xmlns="http://www.w3.org/2000/svg" xmlns:xlink="http://www.w3.org/1999/xlink" version="1.1" x="0px" y="0px" viewBox="0 0 100 100" enable-background="new 0 0 100 100" xml:space="preserve">
  <g>
    <path fill="white" d="M88.87,27.208L48.979,9.972c-0.38-0.14-0.74-0.22-1.12-0.22c-0.359,0-0.74-0.024-1.1,0.115L6.847,27h-0.04   c-0.66,0-0.854,0.964-1.114,1.685C5.254,29.924,6,31.307,7,32.047v7.598c-3,0.7-4.026,2.78-4.026,5.02   c0,1.38,0.327,2.64,1.147,3.56l-3.156,5.338c-0.44,0.82-0.248,1.859,0.592,2.34c0.8,0.439,12.061,0.439,12.901,0   c0.76-0.48,1.024-1.52,0.564-2.34l-3.068-5.338c0.82-0.92,1.002-2.18,1.002-3.56c0-2.239-0.956-4.319-3.956-5.02v-6.198   l11.57,4.319l0.177,7.357c-0.02,0.181,0.078,0.301,0.119,0.44c-1.4,1.5-2.001,3.719-2.001,5.758c0,3.1,1.739,7.379,5.458,7.379   c0.2,0,0.37,0,0.57-0.08c2.06,6.059,6.023,11.518,11.042,15.438c7.638,5.998,16.199,5.998,23.857,0   c4.979-3.92,8.939-9.379,11.019-15.438c0.2,0.08,0.362,0.08,0.562,0.08c3.72,0,5.438-4.279,5.438-7.379   c0-2.039-0.507-4.258-1.946-5.758c0.04-0.14,0.135-0.26,0.135-0.44v-7.357l13.904-5.339c1.439-0.52,2.092-2.179,1.532-3.639   C90.177,28.068,89.55,27.508,88.87,27.208z M9.886,44.352c0,1.121-0.86,1.648-1.919,1.648h-0.04h-0.02H7.887   c-1.06,0-1.693-0.527-1.693-1.648c0-0.52,0.806-0.708,0.806-1.008v-0.039c1-0.74,1.813-0.74,2.533,0L9.44,43.188   C9.78,43.488,9.886,43.833,9.886,44.352z M71.373,55.303c-0.12,0-0.22-0.041-0.319-0.08c-0.08,0-0.16-0.041-0.26-0.102   c-0.181-0.119-0.34-0.219-0.601-0.258c-0.879-0.301-1.819,0.238-2.06,1.139c-1.739,6.059-5.499,11.518-10.418,15.396   c-6.378,5.059-13.316,5.059-19.715,0c-4.939-3.879-8.658-9.338-10.418-15.396c-0.24-0.9-1.16-1.439-2.079-1.139   c-0.2,0.039-0.42,0.139-0.56,0.258c-0.08,0.061-0.18,0.102-0.3,0.102c-0.081,0.039-0.18,0.08-0.3,0.08c-1.58,0-2.06-3.02-2.06-3.98   c0-5.178,5.499-5.917,9.498-6.738c10.098-2.06,22.055-2.06,32.153,0c3.979,0.82,9.519,1.56,9.519,6.738   C73.453,52.283,72.933,55.303,71.373,55.303z M26,40.105v-8.678c0-0.52,2.451-1.3,5.77-2.08c9.698-2.18,21.904-2.18,31.623,0   c3.318,0.78,5.607,1.56,5.607,2.08v8.678c-1-0.38-2.482-0.739-3.922-1c-10.817-2.259-23.948-2.259-34.806,0   C28.873,39.366,27,39.725,26,40.105z M72,32.707v-1.28c0-2.339-2.914-4.199-7.813-5.319c-10.238-2.319-22.313-2.319-32.571,0   C26.678,27.228,24,29.088,24,31.427v1.28l-8.327-3.06l32.33-14.017l32.233,14.017L72,32.707z" />
  </g>
</svg>