<svg xmlns="http://www.w3.org/2000/svg" xmlns:xlink="http://www.w3.org/1999/xlink" version="1.0" x="0px" y="0px" viewBox="0 0 100 100" enable-background="new 0 0 100 100" xml:space="preserve">
  <g>
    <path fill="white" d="M28.5,78h-4c-0.276,0-0.5-0.224-0.5-0.5v-5c0-0.276,0.224-0.5,0.5-0.5h4c0.276,0,0.5,0.224,0.5,0.5v5   C29,77.776,28.776,78,28.5,78z M25,77h3v-4h-3V77z" />
  </g>
  <g>
    <path fill="white" d="M14.5,38h-3c-0.276,0-0.5-0.224-0.5-0.5v-4c0-0.276,0.224-0.5,0.5-0.5h3c0.276,0,0.5,0.224,0.5,0.5v4   C15,37.776,14.776,38,14.5,38z M12,37h2v-3h-2V37z" />
  </g>
  <g>
    <path fill="white" d="M14.5,45h-3c-0.276,0-0.5-0.224-0.5-0.5v-4c0-0.276,0.224-0.5,0.5-0.5h3c0.276,0,0.5,0.224,0.5,0.5v4   C15,44.776,14.776,45,14.5,45z M12,44h2v-3h-2V44z" />
  </g>
  <g>
    <path fill="white" d="M14.5,52h-3c-0.276,0-0.5-0.224-0.5-0.5v-4c0-0.276,0.224-0.5,0.5-0.5h3c0.276,0,0.5,0.224,0.5,0.5v4   C15,51.776,14.776,52,14.5,52z M12,51h2v-3h-2V51z" />
  </g>
  <g>
    <path fill="white" d="M14.5,59h-3c-0.276,0-0.5-0.224-0.5-0.5v-4c0-0.276,0.224-0.5,0.5-0.5h3c0.276,0,0.5,0.224,0.5,0.5v4   C15,58.776,14.776,59,14.5,59z M12,58h2v-3h-2V58z" />
  </g>
  <g>
    <path fill="white" d="M14.5,66h-3c-0.276,0-0.5-0.224-0.5-0.5v-4c0-0.276,0.224-0.5,0.5-0.5h3c0.276,0,0.5,0.224,0.5,0.5v4   C15,65.776,14.776,66,14.5,66z M12,65h2v-3h-2V65z" />
  </g>
  <g>
    <path fill="white" d="M14.5,73h-3c-0.276,0-0.5-0.224-0.5-0.5v-4c0-0.276,0.224-0.5,0.5-0.5h3c0.276,0,0.5,0.224,0.5,0.5v4   C15,72.776,14.776,73,14.5,73z M12,72h2v-3h-2V72z" />
  </g>
  <g>
    <path fill="white" d="M79,36h-4c-0.276,0-0.5-0.224-0.5-0.5S74.724,35,75,35h4c0.276,0,0.5,0.224,0.5,0.5S79.276,36,79,36z" />
  </g>
  <g>
    <path fill="white" d="M93,82H8c-0.552,0-1-0.447-1-1V30c0-0.552,0.448-1,1-1h85c0.553,0,1,0.448,1,1v51   C94,81.553,93.553,82,93,82z M9,80h83V31H9V80z" />
  </g>
  <g>
    <path fill="white" d="M93,31c-0.553,0-1-0.448-1-1v-5c0-1.178-0.852-2-2.071-2H11.321C10.042,23,9,23.897,9,25v5   c0,0.552-0.448,1-1,1s-1-0.448-1-1v-5c0-2.206,1.938-4,4.321-4h78.607C92.25,21,94,22.72,94,25v5C94,30.552,93.553,31,93,31z" />
  </g>
  <g>
    <path fill="white" d="M32,40h-8c-0.276,0-0.5-0.224-0.5-0.5S23.724,39,24,39h8c0.276,0,0.5,0.224,0.5,0.5S32.276,40,32,40z" />
  </g>
  <g>
    <path fill="white" d="M38,77h-7c-0.276,0-0.5-0.224-0.5-0.5S30.724,76,31,76h7c0.276,0,0.5,0.224,0.5,0.5S38.276,77,38,77z" />
  </g>
  <g>
    <path fill="white" d="M41,74H31c-0.276,0-0.5-0.224-0.5-0.5S30.724,73,31,73h10c0.276,0,0.5,0.224,0.5,0.5S41.276,74,41,74z" />
  </g>
  <g>
    <path fill="white" d="M48.5,78h-4c-0.276,0-0.5-0.224-0.5-0.5v-5c0-0.276,0.224-0.5,0.5-0.5h4c0.276,0,0.5,0.224,0.5,0.5v5   C49,77.776,48.776,78,48.5,78z M45,77h3v-4h-3V77z" />
  </g>
  <g>
    <path fill="white" d="M58,77h-7c-0.276,0-0.5-0.224-0.5-0.5S50.724,76,51,76h7c0.276,0,0.5,0.224,0.5,0.5S58.276,77,58,77z" />
  </g>
  <g>
    <path fill="white" d="M61,74H51c-0.276,0-0.5-0.224-0.5-0.5S50.724,73,51,73h10c0.276,0,0.5,0.224,0.5,0.5S61.276,74,61,74z" />
  </g>
  <g>
    <path fill="white" d="M70.5,78h-4c-0.276,0-0.5-0.224-0.5-0.5v-5c0-0.276,0.224-0.5,0.5-0.5h4c0.276,0,0.5,0.224,0.5,0.5v5   C71,77.776,70.776,78,70.5,78z M67,77h3v-4h-3V77z" />
  </g>
  <g>
    <path fill="white" d="M80,77h-7c-0.276,0-0.5-0.224-0.5-0.5S72.724,76,73,76h7c0.276,0,0.5,0.224,0.5,0.5S80.276,77,80,77z" />
  </g>
  <g>
    <path fill="white" d="M83,74H73c-0.276,0-0.5-0.224-0.5-0.5S72.724,73,73,73h10c0.276,0,0.5,0.224,0.5,0.5S83.276,74,83,74z" />
  </g>
  <g>
    <path fill="white" d="M35,37H24c-0.552,0-1-0.448-1-1s0.448-1,1-1h11c0.552,0,1,0.448,1,1S35.552,37,35,37z" />
  </g>
  <g>
    <circle fill="white" cx="13.525" cy="26.025" r="1.275" />
  </g>
  <g>
    <circle fill="white" cx="17.625" cy="26.025" r="1.275" />
  </g>
  <g>
    <circle fill="white" cx="21.725" cy="26.025" r="1.275" />
  </g>
  <g>
    <circle fill="white" cx="72.75" cy="35.75" r="1" />
  </g>
  <g>
    <path fill="white" d="M62,42h-4c-0.276,0-0.5-0.224-0.5-0.5S57.724,41,58,41h4c0.276,0,0.5,0.224,0.5,0.5S62.276,42,62,42z" />
  </g>
  <g>
    <circle fill="white" cx="55.75" cy="41.75" r="1" />
  </g>
  <g>
    <path fill="white" d="M76,59h-4c-0.276,0-0.5-0.224-0.5-0.5S71.724,58,72,58h4c0.276,0,0.5,0.224,0.5,0.5S76.276,59,76,59z" />
  </g>
  <g>
    <circle fill="white" cx="69.75" cy="58.75" r="1" />
  </g>
  <g>
    <path fill="white" d="M47,50h-4c-0.276,0-0.5-0.224-0.5-0.5S42.724,49,43,49h4c0.276,0,0.5,0.224,0.5,0.5S47.276,50,47,50z" />
  </g>
  <g>
    <circle fill="white" cx="40.75" cy="49.75" r="1" />
  </g>
  <g>
    <path fill="white" d="M56,66h-4c-0.276,0-0.5-0.224-0.5-0.5S51.724,65,52,65h4c0.276,0,0.5,0.224,0.5,0.5S56.276,66,56,66z" />
  </g>
  <g>
    <circle fill="white" cx="49.75" cy="65.75" r="1" />
  </g>
  <g>
    <path fill="white" d="M17.5,81.5c-0.276,0-0.5-0.224-0.5-0.5V31c0-0.276,0.224-0.5,0.5-0.5S18,30.724,18,31v50   C18,81.276,17.776,81.5,17.5,81.5z" />
  </g>
  <g>
    <path fill="white" d="M65.396,55.948c-0.075,0-0.152-0.017-0.224-0.053c-0.247-0.124-0.347-0.424-0.224-0.671l5.567-11.118   c0.124-0.247,0.427-0.345,0.671-0.223c0.247,0.124,0.347,0.424,0.224,0.671l-5.567,11.117   C65.755,55.848,65.578,55.948,65.396,55.948z" />
  </g>
  <g>
    <path fill="white" d="M61.778,56.412c-0.148,0-0.295-0.065-0.394-0.191l-4.755-6.072c-0.17-0.217-0.132-0.531,0.085-0.702   c0.218-0.17,0.532-0.132,0.702,0.085l4.755,6.071c0.17,0.218,0.132,0.532-0.085,0.702C61.995,56.377,61.887,56.412,61.778,56.412z" />
  </g>
  <g>
    <path fill="white" d="M49.54,58.744c-0.072,0-0.146-0.016-0.215-0.049c-0.249-0.119-0.354-0.418-0.235-0.667l4.003-8.365   c0.119-0.249,0.418-0.354,0.667-0.235s0.354,0.418,0.235,0.667l-4.003,8.365C49.906,58.64,49.727,58.744,49.54,58.744z" />
  </g>
  <g>
    <path fill="white" d="M45.801,59.559c-0.113,0-0.226-0.038-0.32-0.116l-2.803-2.336c-0.212-0.177-0.241-0.492-0.064-0.704   c0.177-0.211,0.492-0.241,0.705-0.063l2.803,2.336c0.212,0.177,0.241,0.492,0.064,0.704C46.086,59.497,45.944,59.559,45.801,59.559   z" />
  </g>
  <g>
    <path fill="white" d="M31,63.865c-0.138,0-0.274-0.057-0.373-0.167c-0.184-0.206-0.166-0.522,0.041-0.706l7.708-6.869   c0.205-0.185,0.522-0.166,0.706,0.04c0.184,0.206,0.166,0.522-0.041,0.706l-7.708,6.869C31.237,63.823,31.119,63.865,31,63.865z" />
  </g>
  <g>
    <path fill="white" d="M55.255,50.983c-1.801,0-3.266-1.465-3.266-3.266s1.465-3.266,3.266-3.266s3.267,1.465,3.267,3.266   S57.056,50.983,55.255,50.983z M55.255,45.451c-1.249,0-2.266,1.017-2.266,2.266s1.017,2.266,2.266,2.266   c1.25,0,2.267-1.016,2.267-2.266S56.505,45.451,55.255,45.451z" />
  </g>
  <g>
    <path fill="white" d="M40.942,58.14c-1.801,0-3.266-1.465-3.266-3.266s1.465-3.267,3.266-3.267s3.266,1.466,3.266,3.267   S42.743,58.14,40.942,58.14z M40.942,52.607c-1.25,0-2.266,1.017-2.266,2.267c0,1.249,1.016,2.266,2.266,2.266   s2.266-1.017,2.266-2.266C43.208,53.624,42.191,52.607,40.942,52.607z" />
  </g>
  <g>
    <path fill="white" d="M63.843,61.002c-1.801,0-3.266-1.465-3.266-3.266s1.465-3.266,3.266-3.266s3.267,1.465,3.267,3.266   S65.644,61.002,63.843,61.002z M63.843,55.471c-1.249,0-2.266,1.017-2.266,2.266s1.017,2.266,2.266,2.266   c1.25,0,2.267-1.017,2.267-2.266S65.093,55.471,63.843,55.471z" />
  </g>
  <g>
    <path fill="white" d="M48.099,63.865c-1.801,0-3.266-1.466-3.266-3.267s1.465-3.266,3.266-3.266s3.266,1.465,3.266,3.266   S49.899,63.865,48.099,63.865z M48.099,58.333c-1.25,0-2.266,1.017-2.266,2.266c0,1.25,1.016,2.267,2.266,2.267   s2.266-1.017,2.266-2.267C50.365,59.35,49.348,58.333,48.099,58.333z" />
  </g>
  <g>
    <path fill="white" d="M72.431,45.258c-1.801,0-3.266-1.465-3.266-3.266s1.465-3.266,3.266-3.266s3.267,1.465,3.267,3.266   S74.231,45.258,72.431,45.258z M72.431,39.726c-1.249,0-2.266,1.016-2.266,2.266s1.017,2.266,2.266,2.266   c1.25,0,2.267-1.017,2.267-2.266S73.681,39.726,72.431,39.726z" />
  </g>
  <g>
    <path fill="white" stroke="#010101" stroke-linecap="round" stroke-linejoin="round" stroke-miterlimit="10" d="M57.017,49.833" />
  </g>
  <g>
    <path fill="white" stroke="#010101" stroke-linecap="round" stroke-linejoin="round" stroke-miterlimit="10" d="M53.544,49.879" />
  </g>
</svg>